<mxfile host="app.diagrams.net" modified="2021-07-10T17:55:52.437Z" agent="5.0 (Macintosh; Intel Mac OS X 10_15_3) AppleWebKit/537.36 (KHTML, like Gecko) Chrome/91.0.4472.114 Safari/537.36" etag="6PsEbiRE_yw1ijxXJrlC" version="14.8.5" type="github">
  <diagram id="53IQXVl9icCSp_Kw3Ib1" name="Page-1">
    <mxGraphModel dx="2209" dy="769" grid="1" gridSize="10" guides="1" tooltips="1" connect="1" arrows="1" fold="1" page="1" pageScale="1" pageWidth="1100" pageHeight="850" math="0" shadow="0">
      <root>
        <mxCell id="0" />
        <mxCell id="1" parent="0" />
        <mxCell id="fSnZ5vnYTslC5NarKmr_-11" value="Shopify Workflow" style="text;html=1;strokeColor=none;fillColor=none;align=center;verticalAlign=middle;whiteSpace=wrap;rounded=0;fontSize=33;fontColor=#000000;" parent="1" vertex="1">
          <mxGeometry x="-80" y="60" width="538" height="40" as="geometry" />
        </mxCell>
        <UserObject label="Workflow on GitFlow but with no release branch nor tags." link="https://nvie.com/posts/a-successful-git-branching-model/" id="9hBKPDzoitwpIBdzFDQ7-2">
          <mxCell style="text;whiteSpace=wrap;html=1;fontStyle=1;fontSize=16;" parent="1" vertex="1">
            <mxGeometry x="60" y="100" width="457.75" height="20" as="geometry" />
          </mxCell>
        </UserObject>
        <mxCell id="vgY6qe0xlb4fWh-1iuiP-40" value="" style="group" vertex="1" connectable="0" parent="1">
          <mxGeometry x="60" y="180" width="998.75" height="564" as="geometry" />
        </mxCell>
        <mxCell id="9hBKPDzoitwpIBdzFDQ7-15" value="&lt;span style=&quot;text-align: center&quot;&gt;&lt;font color=&quot;#a680b8&quot;&gt;72e13fb5 Add counter&amp;nbsp;&lt;/font&gt;&lt;br&gt;&lt;/span&gt;" style="text;html=1;strokeColor=none;fillColor=none;align=left;verticalAlign=middle;whiteSpace=wrap;overflow=hidden;fontSize=12;fontStyle=0;fontColor=#000000;" parent="vgY6qe0xlb4fWh-1iuiP-40" vertex="1">
          <mxGeometry x="450" y="453.5" width="167.75" height="40" as="geometry" />
        </mxCell>
        <mxCell id="vgY6qe0xlb4fWh-1iuiP-8" value="" style="group;fontColor=#4D4D4D;" vertex="1" connectable="0" parent="vgY6qe0xlb4fWh-1iuiP-40">
          <mxGeometry x="750" y="145" width="248.75" height="318" as="geometry" />
        </mxCell>
        <mxCell id="uWUnNED6HEl2aK5fdaIb-13" value="&lt;font color=&quot;#009900&quot;&gt;staging&lt;/font&gt;" style="text;html=1;strokeColor=none;fillColor=none;align=center;verticalAlign=middle;whiteSpace=wrap;overflow=hidden;fontSize=14;fontStyle=1;fontFamily=Courier New;" parent="vgY6qe0xlb4fWh-1iuiP-8" vertex="1">
          <mxGeometry x="3" width="50" height="42" as="geometry" />
        </mxCell>
        <mxCell id="uWUnNED6HEl2aK5fdaIb-20" value="&lt;font color=&quot;#a680b8&quot;&gt;[feat]countdown&lt;/font&gt;" style="text;html=1;strokeColor=none;fillColor=none;align=left;verticalAlign=middle;whiteSpace=wrap;overflow=hidden;fontSize=14;fontStyle=1;fontFamily=Courier New;" parent="vgY6qe0xlb4fWh-1iuiP-8" vertex="1">
          <mxGeometry y="240" width="240" height="20" as="geometry" />
        </mxCell>
        <mxCell id="uWUnNED6HEl2aK5fdaIb-76" value="&lt;font color=&quot;#ffd966&quot;&gt;development&lt;/font&gt;" style="text;html=1;strokeColor=none;fillColor=none;align=left;verticalAlign=middle;whiteSpace=wrap;overflow=hidden;fontSize=14;fontStyle=1;fontFamily=Courier New;" parent="vgY6qe0xlb4fWh-1iuiP-8" vertex="1">
          <mxGeometry y="170" width="91" height="20" as="geometry" />
        </mxCell>
        <mxCell id="uWUnNED6HEl2aK5fdaIb-86" value="pre-staging" style="text;html=1;strokeColor=none;fillColor=none;align=left;verticalAlign=middle;whiteSpace=wrap;overflow=hidden;fontSize=14;fontStyle=1;fontFamily=Courier New;fontColor=#EA6B66;" parent="vgY6qe0xlb4fWh-1iuiP-8" vertex="1">
          <mxGeometry x="0.8799999999999955" y="100" width="240" height="20" as="geometry" />
        </mxCell>
        <mxCell id="uWUnNED6HEl2aK5fdaIb-87" value="&lt;font color=&quot;#666666&quot;&gt;synced with the development theme on the dev store&lt;/font&gt;" style="text;html=1;strokeColor=none;fillColor=none;align=left;verticalAlign=middle;whiteSpace=wrap;overflow=hidden;fontSize=14;fontStyle=0;fontColor=#009900;" parent="vgY6qe0xlb4fWh-1iuiP-8" vertex="1">
          <mxGeometry x="10" y="184" width="240" height="56" as="geometry" />
        </mxCell>
        <mxCell id="uWUnNED6HEl2aK5fdaIb-89" value="Your feature/fix branch" style="text;html=1;strokeColor=none;fillColor=none;align=left;verticalAlign=middle;whiteSpace=wrap;overflow=hidden;fontSize=14;fontStyle=0;fontColor=#4D4D4D;" parent="vgY6qe0xlb4fWh-1iuiP-8" vertex="1">
          <mxGeometry x="6.75" y="260" width="240" height="20" as="geometry" />
        </mxCell>
        <mxCell id="uWUnNED6HEl2aK5fdaIb-90" value="&lt;font color=&quot;#4d4d4d&quot;&gt;synced with the staging theme on the staging store&lt;/font&gt;" style="text;html=1;strokeColor=none;fillColor=none;align=left;verticalAlign=middle;whiteSpace=wrap;overflow=hidden;fontSize=14;fontStyle=0;fontColor=#009900;" parent="vgY6qe0xlb4fWh-1iuiP-8" vertex="1">
          <mxGeometry x="10" y="30" width="146.75" height="60" as="geometry" />
        </mxCell>
        <mxCell id="vgY6qe0xlb4fWh-1iuiP-1" value="synced with the pre-staging theme on the staging store" style="text;html=1;strokeColor=none;fillColor=none;align=left;verticalAlign=middle;whiteSpace=wrap;overflow=hidden;fontSize=14;fontStyle=0;fontColor=#4D4D4D;" vertex="1" parent="vgY6qe0xlb4fWh-1iuiP-8">
          <mxGeometry x="7.8799999999999955" y="115" width="240" height="47" as="geometry" />
        </mxCell>
        <mxCell id="uWUnNED6HEl2aK5fdaIb-109" value="" style="verticalLabelPosition=bottom;verticalAlign=top;html=1;strokeWidth=4;shape=mxgraph.flowchart.on-page_reference;strokeColor=#82b366;fillColor=#d5e8d4;direction=east;rotation=-90;" parent="vgY6qe0xlb4fWh-1iuiP-40" vertex="1">
          <mxGeometry y="5" width="30" height="30" as="geometry" />
        </mxCell>
        <mxCell id="uWUnNED6HEl2aK5fdaIb-80" value="" style="edgeStyle=orthogonalEdgeStyle;curved=1;rounded=0;orthogonalLoop=1;jettySize=auto;html=1;endArrow=none;endFill=0;strokeWidth=4;fillColor=#e1d5e7;strokeColor=#9673a6;" parent="vgY6qe0xlb4fWh-1iuiP-40" edge="1">
          <mxGeometry y="-65" as="geometry">
            <mxPoint x="15" y="35" as="targetPoint" />
            <mxPoint x="15" y="205" as="sourcePoint" />
          </mxGeometry>
        </mxCell>
        <mxCell id="uWUnNED6HEl2aK5fdaIb-8" value="" style="edgeStyle=orthogonalEdgeStyle;rounded=0;html=1;jettySize=auto;orthogonalLoop=1;endArrow=none;endFill=0;strokeWidth=4;strokeColor=#82b366;fillColor=#d5e8d4;" parent="vgY6qe0xlb4fWh-1iuiP-40" source="uWUnNED6HEl2aK5fdaIb-10" edge="1">
          <mxGeometry x="15" y="534" as="geometry">
            <mxPoint x="15" y="374" as="targetPoint" />
          </mxGeometry>
        </mxCell>
        <mxCell id="uWUnNED6HEl2aK5fdaIb-10" value="" style="verticalLabelPosition=bottom;verticalAlign=top;html=1;strokeWidth=4;shape=mxgraph.flowchart.on-page_reference;fillColor=#d5e8d4;strokeColor=#82b366;direction=east;rotation=-90;" parent="vgY6qe0xlb4fWh-1iuiP-40" vertex="1">
          <mxGeometry y="534" width="30" height="30" as="geometry" />
        </mxCell>
        <mxCell id="uWUnNED6HEl2aK5fdaIb-15" value="" style="verticalLabelPosition=bottom;verticalAlign=top;html=1;strokeWidth=4;shape=mxgraph.flowchart.on-page_reference;strokeColor=#9673a6;fillColor=#e1d5e7;direction=east;rotation=-90;" parent="vgY6qe0xlb4fWh-1iuiP-40" vertex="1">
          <mxGeometry x="85" y="457" width="30" height="30" as="geometry" />
        </mxCell>
        <mxCell id="uWUnNED6HEl2aK5fdaIb-9" style="edgeStyle=orthogonalEdgeStyle;curved=1;rounded=0;html=1;exitX=1;exitY=0.5;exitPerimeter=0;entryX=0;entryY=0.5;entryPerimeter=0;endArrow=none;endFill=0;jettySize=auto;orthogonalLoop=1;strokeWidth=4;fontSize=15;exitDx=0;exitDy=0;entryDx=0;entryDy=0;fillColor=#e1d5e7;strokeColor=#9673a6;" parent="vgY6qe0xlb4fWh-1iuiP-40" source="uWUnNED6HEl2aK5fdaIb-10" target="uWUnNED6HEl2aK5fdaIb-15" edge="1">
          <mxGeometry y="-51" as="geometry" />
        </mxCell>
        <mxCell id="uWUnNED6HEl2aK5fdaIb-17" value="" style="verticalLabelPosition=bottom;verticalAlign=top;html=1;strokeWidth=4;shape=mxgraph.flowchart.on-page_reference;strokeColor=#9673a6;fillColor=#e1d5e7;direction=east;rotation=-90;" parent="vgY6qe0xlb4fWh-1iuiP-40" vertex="1">
          <mxGeometry x="85" y="350" width="30" height="30" as="geometry" />
        </mxCell>
        <mxCell id="uWUnNED6HEl2aK5fdaIb-14" style="edgeStyle=orthogonalEdgeStyle;curved=1;rounded=0;html=1;endArrow=none;endFill=0;jettySize=auto;orthogonalLoop=1;strokeWidth=4;fontSize=15;exitX=1;exitY=0.5;exitDx=0;exitDy=0;exitPerimeter=0;fillColor=#e1d5e7;strokeColor=#9673a6;" parent="vgY6qe0xlb4fWh-1iuiP-40" source="uWUnNED6HEl2aK5fdaIb-15" target="uWUnNED6HEl2aK5fdaIb-17" edge="1">
          <mxGeometry y="-51" as="geometry" />
        </mxCell>
        <mxCell id="uWUnNED6HEl2aK5fdaIb-18" style="edgeStyle=orthogonalEdgeStyle;curved=1;rounded=0;html=1;exitX=1;exitY=0.5;exitPerimeter=0;entryX=0;entryY=0.5;entryPerimeter=0;endArrow=none;endFill=0;jettySize=auto;orthogonalLoop=1;strokeWidth=4;fontSize=15;exitDx=0;exitDy=0;entryDx=0;entryDy=0;fillColor=#e1d5e7;strokeColor=#9673a6;" parent="vgY6qe0xlb4fWh-1iuiP-40" source="uWUnNED6HEl2aK5fdaIb-19" edge="1">
          <mxGeometry y="-51" as="geometry">
            <mxPoint x="15" y="204" as="targetPoint" />
          </mxGeometry>
        </mxCell>
        <mxCell id="vgY6qe0xlb4fWh-1iuiP-13" style="edgeStyle=orthogonalEdgeStyle;rounded=0;orthogonalLoop=1;jettySize=auto;html=1;" edge="1" parent="vgY6qe0xlb4fWh-1iuiP-40" source="uWUnNED6HEl2aK5fdaIb-19">
          <mxGeometry relative="1" as="geometry">
            <mxPoint x="120" y="262" as="targetPoint" />
          </mxGeometry>
        </mxCell>
        <mxCell id="uWUnNED6HEl2aK5fdaIb-19" value="" style="verticalLabelPosition=bottom;verticalAlign=top;html=1;strokeWidth=4;shape=mxgraph.flowchart.on-page_reference;strokeColor=#9673a6;fillColor=#e1d5e7;direction=east;rotation=-90;" parent="vgY6qe0xlb4fWh-1iuiP-40" vertex="1">
          <mxGeometry x="85" y="247" width="30" height="30" as="geometry" />
        </mxCell>
        <mxCell id="uWUnNED6HEl2aK5fdaIb-16" style="edgeStyle=orthogonalEdgeStyle;curved=1;rounded=0;html=1;exitX=1;exitY=0.5;exitPerimeter=0;entryX=0;entryY=0.5;entryPerimeter=0;endArrow=none;endFill=0;jettySize=auto;orthogonalLoop=1;strokeWidth=4;fontSize=15;exitDx=0;exitDy=0;entryDx=0;entryDy=0;fillColor=#e1d5e7;strokeColor=#9673a6;" parent="vgY6qe0xlb4fWh-1iuiP-40" source="uWUnNED6HEl2aK5fdaIb-17" target="uWUnNED6HEl2aK5fdaIb-19" edge="1">
          <mxGeometry y="-51" as="geometry" />
        </mxCell>
        <mxCell id="uWUnNED6HEl2aK5fdaIb-94" style="edgeStyle=orthogonalEdgeStyle;curved=1;rounded=0;orthogonalLoop=1;jettySize=auto;html=1;exitX=0.5;exitY=1;exitDx=0;exitDy=0;exitPerimeter=0;entryX=0;entryY=0.5;entryDx=0;entryDy=0;entryPerimeter=0;endArrow=none;endFill=0;strokeWidth=4;fontFamily=Courier New;fontColor=#009900;fillColor=#f8cecc;strokeColor=#b85450;" parent="vgY6qe0xlb4fWh-1iuiP-40" source="uWUnNED6HEl2aK5fdaIb-10" edge="1">
          <mxGeometry y="-51" as="geometry">
            <mxPoint x="259" y="326" as="targetPoint" />
            <Array as="points">
              <mxPoint x="30" y="537" />
              <mxPoint x="259" y="537" />
            </Array>
          </mxGeometry>
        </mxCell>
        <mxCell id="uWUnNED6HEl2aK5fdaIb-95" value="" style="verticalLabelPosition=bottom;verticalAlign=top;html=1;strokeWidth=4;shape=mxgraph.flowchart.on-page_reference;strokeColor=#d6b656;fillColor=#fff2cc;direction=east;rotation=-90;" parent="vgY6qe0xlb4fWh-1iuiP-40" vertex="1">
          <mxGeometry x="165" y="165" width="30" height="30" as="geometry" />
        </mxCell>
        <mxCell id="uWUnNED6HEl2aK5fdaIb-96" value="" style="edgeStyle=orthogonalEdgeStyle;curved=1;rounded=0;orthogonalLoop=1;jettySize=auto;html=1;endArrow=none;endFill=0;strokeWidth=4;fontFamily=Courier New;fontColor=#009900;fillColor=#fff2cc;strokeColor=#d6b656;" parent="vgY6qe0xlb4fWh-1iuiP-40" target="uWUnNED6HEl2aK5fdaIb-95" edge="1">
          <mxGeometry y="74" as="geometry">
            <mxPoint x="180" y="435" as="sourcePoint" />
            <Array as="points">
              <mxPoint x="180" y="395" />
              <mxPoint x="180" y="395" />
            </Array>
          </mxGeometry>
        </mxCell>
        <mxCell id="uWUnNED6HEl2aK5fdaIb-84" value="" style="verticalLabelPosition=bottom;verticalAlign=top;html=1;strokeWidth=4;shape=mxgraph.flowchart.on-page_reference;strokeColor=#b85450;fillColor=#f8cecc;direction=east;rotation=-90;" parent="vgY6qe0xlb4fWh-1iuiP-40" vertex="1">
          <mxGeometry x="244" y="55" width="30" height="30" as="geometry" />
        </mxCell>
        <mxCell id="uWUnNED6HEl2aK5fdaIb-81" value="" style="edgeStyle=orthogonalEdgeStyle;rounded=0;orthogonalLoop=1;jettySize=auto;html=1;endArrow=none;endFill=0;strokeWidth=4;fillColor=#f8cecc;strokeColor=#b85450;" parent="vgY6qe0xlb4fWh-1iuiP-40" target="uWUnNED6HEl2aK5fdaIb-84" edge="1">
          <mxGeometry y="-51" as="geometry">
            <mxPoint x="259" y="335" as="sourcePoint" />
          </mxGeometry>
        </mxCell>
        <mxCell id="fSnZ5vnYTslC5NarKmr_-1" value="" style="endArrow=classic;html=1;strokeWidth=1;fontFamily=Courier New;fontColor=#009900;" parent="vgY6qe0xlb4fWh-1iuiP-40" edge="1">
          <mxGeometry x="141" y="395.5" width="50" height="50" as="geometry">
            <mxPoint x="320" y="471.5" as="sourcePoint" />
            <mxPoint x="270" y="471.5" as="targetPoint" />
          </mxGeometry>
        </mxCell>
        <mxCell id="9hBKPDzoitwpIBdzFDQ7-14" value="" style="endArrow=classic;html=1;strokeWidth=1;fontFamily=Courier New;fontColor=#009900;exitX=0;exitY=0.5;exitDx=0;exitDy=0;" parent="vgY6qe0xlb4fWh-1iuiP-40" edge="1" source="vgY6qe0xlb4fWh-1iuiP-22">
          <mxGeometry x="230" y="179.5" width="50" height="50" as="geometry">
            <mxPoint x="314" y="179.5" as="sourcePoint" />
            <mxPoint x="274" y="179.5" as="targetPoint" />
          </mxGeometry>
        </mxCell>
        <mxCell id="9hBKPDzoitwpIBdzFDQ7-21" value="" style="edgeStyle=orthogonalEdgeStyle;rounded=0;orthogonalLoop=1;jettySize=auto;html=1;fontSize=15;endArrow=none;endFill=0;strokeWidth=4;entryX=0;entryY=0.5;entryDx=0;entryDy=0;entryPerimeter=0;exitX=0;exitY=0.5;exitDx=0;exitDy=0;exitPerimeter=0;fillColor=#d5e8d4;strokeColor=#82b366;" parent="vgY6qe0xlb4fWh-1iuiP-40" edge="1">
          <mxGeometry y="-51" as="geometry">
            <mxPoint x="15" y="204" as="targetPoint" />
            <mxPoint x="14" y="397" as="sourcePoint" />
            <Array as="points">
              <mxPoint x="15" y="327" />
              <mxPoint x="15" y="327" />
            </Array>
          </mxGeometry>
        </mxCell>
        <mxCell id="vgY6qe0xlb4fWh-1iuiP-4" style="edgeStyle=orthogonalEdgeStyle;curved=1;rounded=0;orthogonalLoop=1;jettySize=auto;html=1;entryX=0;entryY=0.5;entryDx=0;entryDy=0;entryPerimeter=0;endArrow=none;endFill=0;strokeWidth=4;fontFamily=Courier New;fontColor=#009900;fillColor=#fff2cc;strokeColor=#d6b656;" edge="1" parent="vgY6qe0xlb4fWh-1iuiP-40">
          <mxGeometry y="-51" as="geometry">
            <mxPoint x="30" y="549" as="sourcePoint" />
            <mxPoint x="180" y="410" as="targetPoint" />
            <Array as="points">
              <mxPoint x="30" y="549" />
              <mxPoint x="30" y="517" />
              <mxPoint x="180" y="517" />
            </Array>
          </mxGeometry>
        </mxCell>
        <mxCell id="vgY6qe0xlb4fWh-1iuiP-11" style="edgeStyle=orthogonalEdgeStyle;curved=1;rounded=0;html=1;endArrow=none;endFill=0;jettySize=auto;orthogonalLoop=1;strokeWidth=4;fontSize=15;fillColor=#e1d5e7;strokeColor=#9673a6;entryX=0;entryY=0.5;entryDx=0;entryDy=0;entryPerimeter=0;exitX=0.5;exitY=1;exitDx=0;exitDy=0;exitPerimeter=0;" edge="1" parent="vgY6qe0xlb4fWh-1iuiP-40" source="uWUnNED6HEl2aK5fdaIb-19" target="uWUnNED6HEl2aK5fdaIb-95">
          <mxGeometry x="10" y="-41" as="geometry">
            <mxPoint x="120" y="265" as="sourcePoint" />
            <mxPoint x="180" y="195" as="targetPoint" />
          </mxGeometry>
        </mxCell>
        <mxCell id="vgY6qe0xlb4fWh-1iuiP-12" style="edgeStyle=orthogonalEdgeStyle;curved=1;rounded=0;html=1;exitX=0.5;exitY=1;exitPerimeter=0;endArrow=none;endFill=0;jettySize=auto;orthogonalLoop=1;strokeWidth=4;fontSize=15;exitDx=0;exitDy=0;fillColor=#e1d5e7;strokeColor=#9673a6;entryX=0;entryY=0.5;entryDx=0;entryDy=0;entryPerimeter=0;" edge="1" parent="vgY6qe0xlb4fWh-1iuiP-40" source="uWUnNED6HEl2aK5fdaIb-19" target="uWUnNED6HEl2aK5fdaIb-84">
          <mxGeometry x="20" y="-31" as="geometry">
            <mxPoint x="120" y="267" as="sourcePoint" />
            <mxPoint x="260" y="95" as="targetPoint" />
          </mxGeometry>
        </mxCell>
        <mxCell id="vgY6qe0xlb4fWh-1iuiP-14" value="&lt;font color=&quot;#a680b8&quot;&gt;feat[countdown]&lt;/font&gt;" style="rounded=1;whiteSpace=wrap;html=1;labelBackgroundColor=none;labelBorderColor=none;fillColor=#e1d5e7;strokeColor=#9673a6;shadow=1;" vertex="1" parent="vgY6qe0xlb4fWh-1iuiP-40">
          <mxGeometry x="320" y="457" width="120" height="33" as="geometry" />
        </mxCell>
        <mxCell id="vgY6qe0xlb4fWh-1iuiP-15" value="&lt;font color=&quot;#a680b8&quot;&gt;feat[countdown]&lt;/font&gt;" style="rounded=1;whiteSpace=wrap;html=1;labelBackgroundColor=none;labelBorderColor=none;fillColor=#e1d5e7;strokeColor=#9673a6;shadow=1;" vertex="1" parent="vgY6qe0xlb4fWh-1iuiP-40">
          <mxGeometry x="320" y="348.5" width="120" height="33" as="geometry" />
        </mxCell>
        <mxCell id="vgY6qe0xlb4fWh-1iuiP-16" value="&lt;span style=&quot;text-align: center&quot;&gt;&lt;font color=&quot;#a680b8&quot;&gt;3efa1739&amp;nbsp;&lt;/font&gt;&lt;/span&gt;&lt;span style=&quot;text-align: center&quot;&gt;&lt;font color=&quot;#a680b8&quot;&gt;Add styling&amp;nbsp;&lt;/font&gt;&lt;br&gt;&lt;/span&gt;" style="text;html=1;strokeColor=none;fillColor=none;align=left;verticalAlign=middle;whiteSpace=wrap;overflow=hidden;fontSize=12;fontStyle=0;fontColor=#000000;" vertex="1" parent="vgY6qe0xlb4fWh-1iuiP-40">
          <mxGeometry x="450" y="345" width="167.75" height="40" as="geometry" />
        </mxCell>
        <mxCell id="vgY6qe0xlb4fWh-1iuiP-17" value="&lt;font color=&quot;#a680b8&quot;&gt;feat[countdown]&lt;/font&gt;" style="rounded=1;whiteSpace=wrap;html=1;labelBackgroundColor=none;labelBorderColor=none;fillColor=#e1d5e7;strokeColor=#9673a6;shadow=1;" vertex="1" parent="vgY6qe0xlb4fWh-1iuiP-40">
          <mxGeometry x="320" y="244" width="120" height="33" as="geometry" />
        </mxCell>
        <mxCell id="vgY6qe0xlb4fWh-1iuiP-18" value="&lt;span style=&quot;text-align: center&quot;&gt;&lt;font color=&quot;#a680b8&quot;&gt;6y7234r6&amp;nbsp;&lt;/font&gt;&lt;/span&gt;&lt;span style=&quot;text-align: center&quot;&gt;&lt;font color=&quot;#a680b8&quot;&gt;Final fixes&amp;nbsp;&lt;/font&gt;&lt;br&gt;&lt;/span&gt;" style="text;html=1;strokeColor=none;fillColor=none;align=left;verticalAlign=middle;whiteSpace=wrap;overflow=hidden;fontSize=12;fontStyle=0;fontColor=#000000;" vertex="1" parent="vgY6qe0xlb4fWh-1iuiP-40">
          <mxGeometry x="450" y="240.5" width="167.75" height="40" as="geometry" />
        </mxCell>
        <mxCell id="vgY6qe0xlb4fWh-1iuiP-20" value="" style="endArrow=classic;html=1;strokeWidth=1;fontFamily=Courier New;fontColor=#009900;" edge="1" parent="vgY6qe0xlb4fWh-1iuiP-40">
          <mxGeometry x="141" y="288.5" width="50" height="50" as="geometry">
            <mxPoint x="320" y="364.5" as="sourcePoint" />
            <mxPoint x="270" y="364.5" as="targetPoint" />
          </mxGeometry>
        </mxCell>
        <mxCell id="vgY6qe0xlb4fWh-1iuiP-21" value="" style="endArrow=classic;html=1;strokeWidth=1;fontFamily=Courier New;fontColor=#009900;" edge="1" parent="vgY6qe0xlb4fWh-1iuiP-40">
          <mxGeometry x="141" y="184" width="50" height="50" as="geometry">
            <mxPoint x="320" y="260" as="sourcePoint" />
            <mxPoint x="270" y="260" as="targetPoint" />
          </mxGeometry>
        </mxCell>
        <mxCell id="vgY6qe0xlb4fWh-1iuiP-22" value="&lt;font color=&quot;#cccc00&quot;&gt;development&lt;/font&gt;" style="rounded=1;whiteSpace=wrap;html=1;labelBackgroundColor=none;labelBorderColor=none;fillColor=#fff2cc;strokeColor=#d6b656;shadow=1;" vertex="1" parent="vgY6qe0xlb4fWh-1iuiP-40">
          <mxGeometry x="320" y="163.5" width="120" height="33" as="geometry" />
        </mxCell>
        <mxCell id="vgY6qe0xlb4fWh-1iuiP-23" value="&lt;span style=&quot;text-align: center&quot;&gt;&lt;font&gt;96tsrf56s&amp;nbsp;&lt;/font&gt;&lt;/span&gt;&lt;span style=&quot;text-align: center&quot;&gt;&lt;font&gt;Merge feat/countdown into develop&amp;nbsp;&lt;/font&gt;&lt;br&gt;&lt;/span&gt;" style="text;html=1;strokeColor=none;fillColor=none;align=left;verticalAlign=middle;whiteSpace=wrap;overflow=hidden;fontSize=12;fontStyle=0;fontColor=#FFD966;" vertex="1" parent="vgY6qe0xlb4fWh-1iuiP-40">
          <mxGeometry x="450" y="160" width="270" height="40" as="geometry" />
        </mxCell>
        <mxCell id="vgY6qe0xlb4fWh-1iuiP-29" value="" style="endArrow=classic;html=1;strokeWidth=1;fontFamily=Courier New;fontColor=#009900;exitX=0;exitY=0.5;exitDx=0;exitDy=0;" edge="1" parent="vgY6qe0xlb4fWh-1iuiP-40">
          <mxGeometry x="236" y="71" width="50" height="50" as="geometry">
            <mxPoint x="326" y="71.5" as="sourcePoint" />
            <mxPoint x="280" y="71" as="targetPoint" />
          </mxGeometry>
        </mxCell>
        <mxCell id="vgY6qe0xlb4fWh-1iuiP-28" value="&lt;font&gt;pre-staging&lt;/font&gt;" style="rounded=1;whiteSpace=wrap;html=1;labelBackgroundColor=none;labelBorderColor=none;fillColor=#f8cecc;strokeColor=#b85450;shadow=1;fontColor=#EA6B66;" vertex="1" parent="vgY6qe0xlb4fWh-1iuiP-40">
          <mxGeometry x="320" y="55" width="120" height="33" as="geometry" />
        </mxCell>
        <mxCell id="vgY6qe0xlb4fWh-1iuiP-31" value="&lt;span style=&quot;text-align: center&quot;&gt;&lt;font color=&quot;#ea6b66&quot;&gt;96tsrf56s&amp;nbsp;&lt;/font&gt;&lt;/span&gt;&lt;span style=&quot;text-align: center&quot;&gt;&lt;font color=&quot;#ea6b66&quot;&gt;Merge feat/countdown into pre-staging&amp;nbsp;&lt;/font&gt;&lt;br&gt;&lt;/span&gt;" style="text;html=1;strokeColor=none;fillColor=none;align=left;verticalAlign=middle;whiteSpace=wrap;overflow=hidden;fontSize=12;fontStyle=0;fontColor=#FFD966;" vertex="1" parent="vgY6qe0xlb4fWh-1iuiP-40">
          <mxGeometry x="450" y="51.5" width="270" height="40" as="geometry" />
        </mxCell>
        <mxCell id="vgY6qe0xlb4fWh-1iuiP-37" value="" style="endArrow=classic;html=1;strokeWidth=1;fontFamily=Courier New;fontColor=#009900;exitX=0;exitY=0.5;exitDx=0;exitDy=0;" edge="1" parent="vgY6qe0xlb4fWh-1iuiP-40">
          <mxGeometry x="236" y="19.5" width="50" height="50" as="geometry">
            <mxPoint x="326" y="20" as="sourcePoint" />
            <mxPoint x="280" y="19.5" as="targetPoint" />
          </mxGeometry>
        </mxCell>
        <mxCell id="vgY6qe0xlb4fWh-1iuiP-38" value="&lt;font&gt;staging&lt;/font&gt;" style="rounded=1;whiteSpace=wrap;html=1;labelBackgroundColor=none;labelBorderColor=none;fillColor=#d5e8d4;strokeColor=#82b366;shadow=1;" vertex="1" parent="vgY6qe0xlb4fWh-1iuiP-40">
          <mxGeometry x="320" y="3.5" width="120" height="33" as="geometry" />
        </mxCell>
        <mxCell id="vgY6qe0xlb4fWh-1iuiP-39" value="&lt;span style=&quot;text-align: center&quot;&gt;&lt;font&gt;96tsrf56s&amp;nbsp;&lt;/font&gt;&lt;/span&gt;&lt;span style=&quot;text-align: center&quot;&gt;&lt;font&gt;Merge feat/countdown into staging&amp;nbsp;&lt;/font&gt;&lt;br&gt;&lt;/span&gt;" style="text;html=1;strokeColor=none;fillColor=none;align=left;verticalAlign=middle;whiteSpace=wrap;overflow=hidden;fontSize=12;fontStyle=0;fontColor=#009900;" vertex="1" parent="vgY6qe0xlb4fWh-1iuiP-40">
          <mxGeometry x="450" width="270" height="40" as="geometry" />
        </mxCell>
      </root>
    </mxGraphModel>
  </diagram>
</mxfile>
